<?xml version="1.0" encoding="UTF-8"?>
<svg xmlns="http://www.w3.org/2000/svg" xmlns:xlink="http://www.w3.org/1999/xlink" width="2400" height="2000" viewBox="0 0 2400 2000">

<path fill-rule="evenodd" fill="rgb(0%, 0%, 0%)" fill-opacity="1" d="M 1391.019531 1272.757812 C 1391.019531 1272.757812 1478.730469 1252.433594 1502.761719 1244.019531 C 1502.761719 1244.019531 1534 1325.722656 1590.46875 1385.796875 C 1590.46875 1385.796875 1490.738281 1363.972656 1391.019531 1272.757812 "/>
<path fill-rule="evenodd" fill="rgb(0%, 0%, 0%)" fill-opacity="1" d="M 1610.890625 1409.824219 C 1610.890625 1409.824219 1637.320312 1445.867188 1648.140625 1454.28125 C 1648.140625 1454.28125 1519.578125 1520.359375 1514.769531 1533.578125 C 1509.96875 1546.792969 1517.179688 1574.425781 1517.179688 1574.425781 L 1445.089844 1612.015625 C 1445.089844 1612.015625 1433.070312 1569.621094 1453.5 1521.5625 C 1473.921875 1473.503906 1460.710938 1480.710938 1490.738281 1473.503906 C 1520.78125 1466.292969 1610.890625 1409.824219 1610.890625 1409.824219 "/>
<path fill-rule="evenodd" fill="rgb(0%, 0%, 0%)" fill-opacity="1" d="M 824.460938 1068.074219 L 953.019531 1153.378906 C 953.019531 1153.378906 925.382812 1177.410156 898.949219 1175.007812 C 872.519531 1172.605469 719.929688 1208.648438 681.484375 1233.878906 C 681.484375 1233.878906 662.386719 1209.386719 678.992188 1200.160156 C 695.605469 1190.933594 687.605469 1144.796875 687.605469 1144.796875 C 687.605469 1144.796875 786.609375 1113.617188 824.460938 1068.074219 "/>
<path fill-rule="evenodd" fill="rgb(0%, 0%, 0%)" fill-opacity="1" d="M 564.878906 1262.710938 C 564.878906 1262.710938 575.863281 1278.089844 576.410156 1285.777344 C 576.960938 1293.46875 573.125 1315.984375 581.085938 1331.363281 C 581.085938 1331.363281 558.285156 1370.359375 547.300781 1362.671875 C 536.316406 1354.980469 525.882812 1380.246094 557.738281 1402.21875 C 557.738281 1402.21875 524.234375 1473.621094 462.71875 1462.085938 C 462.71875 1462.085938 440.199219 1385.738281 474.253906 1348.941406 C 508.304688 1312.140625 564.878906 1262.710938 564.878906 1262.710938 "/>
<path fill-rule="evenodd" fill="rgb(0%, 0%, 0%)" fill-opacity="1" d="M 862.703125 637.179688 C 862.703125 637.179688 861.503906 683.671875 837.472656 705.289062 C 813.445312 726.921875 783.40625 777.378906 801.429688 805.019531 C 819.453125 832.648438 759.378906 861.488281 759.378906 861.488281 C 759.378906 861.488281 712.519531 870.820312 698.101562 846.328125 C 683.683594 821.839844 680.078125 717.308594 670.46875 660.839844 C 660.855469 604.371094 674.074219 522.671875 674.074219 522.671875 C 674.074219 522.671875 640.496094 503.449219 617.636719 507.050781 C 617.636719 507.050781 648.84375 471.011719 677.675781 471.011719 C 677.675781 471.011719 717.324219 293.191406 850.691406 301.601562 C 984.054688 310.011719 1035.71875 320.820312 1078.96875 287.179688 C 1078.96875 287.179688 1049.039062 347.328125 935.996094 345.761719 C 871.113281 344.851562 851.890625 402.519531 851.890625 402.519531 C 851.890625 402.519531 905.957031 352.058594 970.839844 365.28125 C 970.839844 365.28125 957.621094 367.679688 945.605469 379.691406 C 945.605469 379.691406 962.429688 390.511719 1006.878906 361.671875 C 1051.339844 332.839844 1160.671875 322.019531 1201.519531 362.871094 C 1201.519531 362.871094 1148.660156 338.839844 1106.609375 355.660156 C 1106.609375 355.660156 1154.660156 355.660156 1176.289062 370.078125 C 1197.921875 384.5 1235.160156 414.539062 1267.601562 400.121094 C 1267.601562 400.121094 1254.390625 422.949219 1206.328125 409.730469 C 1158.269531 396.511719 1125.828125 418.140625 1125.828125 418.140625 C 1125.828125 418.140625 1193.109375 413.339844 1224.351562 432.558594 C 1255.589844 451.78125 1309.648438 442.171875 1328.878906 414.539062 C 1328.878906 414.539062 1302.449219 465 1235.160156 457.789062 C 1235.160156 457.789062 1250.78125 479.421875 1290.429688 472.210938 C 1330.078125 465 1366.121094 484.21875 1366.121094 484.21875 C 1366.121094 484.21875 1321.671875 468.601562 1294.039062 490.230469 C 1266.398438 511.859375 1195.511719 501.039062 1175.089844 477.011719 C 1175.089844 477.011719 1194.308594 503.449219 1241.171875 515.460938 C 1288.03125 527.480469 1330.078125 585.148438 1330.078125 585.148438 C 1330.078125 585.148438 1286.828125 569.53125 1260.390625 567.121094 C 1260.390625 567.121094 1249.578125 659.640625 1301.238281 682.46875 C 1301.238281 682.46875 1292.828125 686.070312 1271.210938 676.460938 C 1271.210938 676.460938 1272.410156 711.300781 1330.078125 725.71875 C 1387.75 740.140625 1412.980469 778.578125 1425 812.230469 C 1425 812.230469 1390.148438 770.171875 1338.488281 756.960938 C 1286.828125 743.738281 1267.601562 753.351562 1267.601562 753.351562 C 1267.601562 753.351562 1283.21875 803.820312 1348.101562 826.640625 C 1348.101562 826.640625 1266.398438 833.851562 1221.949219 760.558594 C 1221.949219 760.558594 1206.328125 794.199219 1245.980469 833.851562 C 1285.628906 873.5 1345.699219 891.519531 1438.210938 886.71875 C 1530.730469 881.910156 1661.691406 904.738281 1719.359375 972.019531 C 1777.03125 1039.304688 1805.859375 1094.574219 1815.480469 1082.558594 C 1825.089844 1070.542969 1813.070312 937.179688 1756.601562 914.351562 L 1784.238281 909.550781 C 1784.238281 909.550781 1753 867.488281 1682.109375 868.699219 C 1611.230469 869.898438 1569.171875 832.648438 1569.171875 832.648438 C 1569.171875 832.648438 1613.628906 846.789062 1634.050781 846.328125 C 1654.480469 845.871094 1674.898438 833.851562 1674.898438 833.851562 C 1674.898438 833.851562 1638.859375 805.019531 1587.199219 795.410156 C 1535.53125 785.789062 1510.300781 820.640625 1510.300781 820.640625 C 1510.300781 820.640625 1507.898438 783.390625 1555.960938 770.171875 C 1604.019531 756.960938 1654.480469 783.390625 1654.480469 783.390625 C 1654.480469 783.390625 1553.550781 744.941406 1549.949219 662.039062 C 1546.339844 579.140625 1519.910156 553.910156 1519.910156 553.910156 C 1519.910156 553.910156 1569.171875 580.339844 1582.390625 652.429688 C 1595.609375 724.519531 1673.699219 722.109375 1673.699219 722.109375 C 1673.699219 722.109375 1652.078125 707.699219 1643.671875 663.238281 C 1643.671875 663.238281 1649.671875 684.871094 1718.160156 707.699219 C 1786.640625 730.53125 1726.570312 681.261719 1726.570312 681.261719 C 1726.570312 681.261719 1787.839844 689.679688 1813.070312 741.339844 C 1838.300781 793 1847.921875 832.648438 1847.921875 832.648438 C 1847.921875 832.648438 1850.320312 720.910156 1881.558594 699.289062 C 1881.558594 699.289062 1856.328125 772.300781 1870.738281 846.328125 C 1885.160156 920.359375 1909.191406 944.390625 1909.191406 944.390625 C 1909.191406 944.390625 1926.011719 886.71875 1901.980469 830.25 C 1901.980469 830.25 1941.628906 871.101562 1944.03125 926.371094 C 1946.441406 981.628906 1941.628906 1030.894531 1916.398438 1077.753906 C 1891.171875 1124.609375 1828.691406 1164.257812 1798.660156 1121.007812 C 1798.660156 1121.007812 1767.421875 1213.050781 1689.320312 1272.757812 C 1689.320312 1272.757812 1673.699219 1291.953125 1690.519531 1324.824219 C 1707.339844 1357.695312 1725.371094 1411.761719 1749.390625 1440.597656 C 1773.429688 1469.433594 1745.789062 1497.066406 1719.359375 1518.695312 C 1692.929688 1540.320312 1578.789062 1660.46875 1554.761719 1662.871094 C 1530.730469 1665.273438 1519.910156 1648.453125 1516.308594 1661.671875 C 1512.699219 1674.886719 1516.308594 1707.328125 1516.308594 1707.328125 C 1516.308594 1707.328125 1399.769531 1724.148438 1409.378906 1698.914062 C 1418.988281 1673.683594 1451.429688 1629.230469 1474.261719 1629.230469 C 1497.089844 1629.230469 1677.308594 1488.65625 1674.898438 1467.03125 C 1672.5 1445.40625 1534.328125 1326.460938 1518.710938 1215.921875 C 1518.710938 1215.921875 1370.929688 1255.570312 1262.800781 1251.96875 C 1154.660156 1248.363281 1005.679688 1172.667969 926.382812 1117.402344 C 847.085938 1062.132812 734.148438 988.839844 719.730469 1010.46875 C 705.3125 1032.097656 672.871094 1130.617188 674.074219 1165.460938 C 675.273438 1200.304688 653.648438 1196.699219 654.847656 1217.125 C 656.050781 1237.550781 684.886719 1261.578125 684.886719 1261.578125 C 684.886719 1261.578125 653.714844 1333.667969 617.636719 1339.675781 C 581.558594 1345.683594 594.777344 1291.144531 585.164062 1272.757812 C 575.550781 1254.371094 583.960938 1207.511719 599.582031 1166.660156 C 615.199219 1125.8125 646.4375 1041.707031 651.246094 1000.859375 C 656.050781 960.011719 681.28125 909.550781 732.945312 927.570312 C 784.609375 945.589844 817.050781 957.609375 817.050781 957.609375 C 817.050781 957.609375 838.675781 892.449219 883.128906 846.328125 C 883.128906 846.328125 896.347656 656.769531 862.703125 637.179688 "/>
</svg>
